<svg id="Capa_1" enable-background="new 0 0 512 512" height="512" viewBox="0 0 512 512" width="512" xmlns="http://www.w3.org/2000/svg"><g><path d="m474.5 83.5h-30v345h30c16.569 0 30-13.431 30-30v-285c0-16.569-13.431-30-30-30z" fill="#008baa"/><path d="m474.5 398.5v-285c0-16.569-13.431-30-30-30h-407c-16.569 0-30 13.431-30 30v285c0 16.569 13.431 30 30 30h407c16.569 0 30-13.431 30-30z" fill="#00add2"/><path d="m422 323.5h-30v45h30c12.426 0 22.5-10.073 22.5-22.5 0-12.426-10.073-22.5-22.5-22.5z" fill="#016e87"/><path d="m414.5 346c0-12.426-10.074-22.5-22.5-22.5h-68.5c-12.426 0-22.5 10.074-22.5 22.5 0 12.427 10.074 22.5 22.5 22.5h68.5c12.427 0 22.5-10.073 22.5-22.5z" fill="#008baa"/><path d="m422 376h-98.5c-16.542 0-30-13.458-30-30s13.458-30 30-30h98.5c16.542 0 30 13.458 30 30s-13.458 30-30 30zm-98.5-45c-8.271 0-15 6.729-15 15s6.729 15 15 15h98.5c8.271 0 15-6.729 15-15s-6.729-15-15-15z"/><path d="m414.5 248.5-30 15 30 15h30v-30z" fill="#63e4ff"/><path d="m67.5 248.5h347v30h-347z" fill="#bdf4ff"/><path d="m157.5 143.5h-30v75h30c8.284 0 15-6.716 15-15v-45c0-8.284-6.716-15-15-15z" fill="#ffcd37"/><path d="m142.5 203.5v-45c0-8.284-6.716-15-15-15h-45c-8.284 0-15 6.716-15 15v45c0 8.284 6.716 15 15 15h45c8.284 0 15-6.716 15-15z" fill="#ffdf7d"/><path d="m474.5 76h-437c-20.678 0-37.5 16.822-37.5 37.5v90c0 4.142 3.358 7.5 7.5 7.5s7.5-3.358 7.5-7.5v-90c0-12.407 10.093-22.5 22.5-22.5h437c12.407 0 22.5 10.093 22.5 22.5v285c0 12.407-10.093 22.5-22.5 22.5h-437c-12.407 0-22.5-10.093-22.5-22.5v-165c0-4.142-3.358-7.5-7.5-7.5s-7.5 3.358-7.5 7.5v165c0 20.678 16.822 37.5 37.5 37.5h437c20.678 0 37.5-16.822 37.5-37.5v-285c0-20.678-16.822-37.5-37.5-37.5z"/><path d="m60 278.5c0 4.142 3.358 7.5 7.5 7.5h377c4.142 0 7.5-3.358 7.5-7.5v-30c0-4.142-3.358-7.5-7.5-7.5h-377c-4.142 0-7.5 3.358-7.5 7.5zm15-22.5h362v15h-362z"/><path d="m67.5 316h188.5c4.142 0 7.5-3.358 7.5-7.5s-3.358-7.5-7.5-7.5h-188.5c-4.142 0-7.5 3.358-7.5 7.5s3.358 7.5 7.5 7.5z"/><path d="m82.5 226h75c12.407 0 22.5-10.093 22.5-22.5v-45c0-12.407-10.093-22.5-22.5-22.5h-75c-12.407 0-22.5 10.093-22.5 22.5v45c0 12.407 10.093 22.5 22.5 22.5zm-7.5-67.5c0-4.136 3.364-7.5 7.5-7.5h75c4.136 0 7.5 3.364 7.5 7.5v45c0 4.136-3.364 7.5-7.5 7.5h-75c-4.136 0-7.5-3.364-7.5-7.5z"/></g></svg>