<svg id="Layer_1" enable-background="new 0 0 512 512" height="512" viewBox="0 0 512 512" width="512" xmlns="http://www.w3.org/2000/svg"><g><path d="m504.5 37.85v436.3c0 16.76-13.59 30.35-30.35 30.35h-436.3c-16.76 0-30.35-13.59-30.35-30.35v-436.3c0-16.76 13.59-30.35 30.35-30.35h436.3c16.76 0 30.35 13.59 30.35 30.35z" fill="#51697a"/><path d="m504.5 37.85v436.3c0 16.76-13.59 30.35-30.35 30.35h-31.75c16.76 0 30.35-13.59 30.35-30.35v-436.3c0-16.76-13.59-30.35-30.35-30.35h31.75c16.76 0 30.35 13.59 30.35 30.35z" fill="#354c5b"/><path d="m271.874 39.249h200.876v166.785h-200.876z" fill="#5cd5ff"/><path d="m39.249 39.249h200.876v243.305h-200.876z" fill="#5cd5ff"/><path d="m39.249 314.303h84.564v158.448h-84.564z" fill="#e5f5f9"/><path d="m155.562 314.303h84.563v158.448h-84.563z" fill="#ffeb31"/><path d="m220.025 314.303h20.101v158.448h-20.101z" fill="#ffce00"/><path d="m103.712 314.303h20.101v158.448h-20.101z" fill="#bfd5dd"/><path d="m271.874 237.783h200.876v234.968h-200.876z" fill="#ffce00"/><path d="m442.751 39.249h30v166.785h-30z" fill="#5ab5ff"/><path d="m210.125 39.249h30v243.305h-30z" fill="#5ab5ff"/><path d="m442.751 237.783h30v234.968h-30z" fill="#ff8f33"/></g><g><path d="m474.153 0h-378.254c-4.143 0-7.5 3.357-7.5 7.5s3.357 7.5 7.5 7.5h378.254c12.598 0 22.847 10.248 22.847 22.846v378.086c0 4.143 3.357 7.5 7.5 7.5s7.5-3.357 7.5-7.5v-378.086c0-20.868-16.978-37.846-37.847-37.846z"/><path d="m504.5 443.081c-4.143 0-7.5 3.357-7.5 7.5v23.573c0 12.598-10.249 22.846-22.847 22.846h-436.307c-12.598 0-22.846-10.248-22.846-22.846v-436.308c0-12.598 10.248-22.846 22.846-22.846h23.188c4.143 0 7.5-3.357 7.5-7.5s-3.357-7.5-7.5-7.5h-23.188c-20.868 0-37.846 16.978-37.846 37.846v436.309c0 20.867 16.978 37.845 37.846 37.845h436.308c20.868 0 37.846-16.978 37.846-37.846v-23.573c0-4.143-3.357-7.5-7.5-7.5z"/><path d="m472.751 74.776c4.143 0 7.5-3.357 7.5-7.5v-28.027c0-4.143-3.357-7.5-7.5-7.5h-200.877c-4.143 0-7.5 3.357-7.5 7.5v166.785c0 4.143 3.357 7.5 7.5 7.5h200.877c4.143 0 7.5-3.357 7.5-7.5v-104.312c0-4.143-3.357-7.5-7.5-7.5s-7.5 3.357-7.5 7.5v96.813h-185.877v-151.786h185.877v20.527c0 4.143 3.357 7.5 7.5 7.5z"/><path d="m247.625 39.249c0-4.143-3.357-7.5-7.5-7.5h-200.876c-4.143 0-7.5 3.357-7.5 7.5v179.538c0 4.143 3.357 7.5 7.5 7.5s7.5-3.357 7.5-7.5v-172.038h185.876v228.305h-185.876v-22.054c0-4.143-3.357-7.5-7.5-7.5s-7.5 3.357-7.5 7.5v29.554c0 4.143 3.357 7.5 7.5 7.5h200.876c4.143 0 7.5-3.357 7.5-7.5z"/><path d="m39.249 306.803c-4.143 0-7.5 3.357-7.5 7.5v158.448c0 4.143 3.357 7.5 7.5 7.5h84.563c4.143 0 7.5-3.357 7.5-7.5v-158.448c0-4.143-3.357-7.5-7.5-7.5zm77.064 158.448h-69.564v-143.448h69.563v143.448z"/><path d="m240.125 306.803h-84.563c-4.143 0-7.5 3.357-7.5 7.5v158.448c0 4.143 3.357 7.5 7.5 7.5h84.563c4.143 0 7.5-3.357 7.5-7.5v-158.448c0-4.143-3.357-7.5-7.5-7.5zm-7.5 158.448h-69.563v-143.448h69.563z"/><path d="m264.374 472.751c0 4.143 3.357 7.5 7.5 7.5h200.877c4.143 0 7.5-3.357 7.5-7.5v-234.968c0-4.143-3.357-7.5-7.5-7.5h-200.877c-4.143 0-7.5 3.357-7.5 7.5zm15-227.468h185.877v219.968h-185.877z"/><path d="m67.154 401.027h6.877v6.876c0 4.143 3.357 7.5 7.5 7.5s7.5-3.357 7.5-7.5v-6.876h6.877c4.143 0 7.5-3.357 7.5-7.5s-3.357-7.5-7.5-7.5h-6.877v-6.877c0-4.143-3.357-7.5-7.5-7.5s-7.5 3.357-7.5 7.5v6.877h-6.877c-4.143 0-7.5 3.357-7.5 7.5s3.358 7.5 7.5 7.5z"/><path d="m183.467 401.027h6.877v6.876c0 4.143 3.357 7.5 7.5 7.5s7.5-3.357 7.5-7.5v-6.876h6.877c4.143 0 7.5-3.357 7.5-7.5s-3.357-7.5-7.5-7.5h-6.877v-6.877c0-4.143-3.357-7.5-7.5-7.5s-7.5 3.357-7.5 7.5v6.877h-6.877c-4.143 0-7.5 3.357-7.5 7.5s3.357 7.5 7.5 7.5z"/><path d="m139.687 139.024c-4.143 0-7.5 3.357-7.5 7.5v6.877h-6.876c-4.143 0-7.5 3.357-7.5 7.5s3.357 7.5 7.5 7.5h6.876v6.877c0 4.143 3.357 7.5 7.5 7.5s7.5-3.357 7.5-7.5v-6.877h6.877c4.143 0 7.5-3.357 7.5-7.5s-3.357-7.5-7.5-7.5h-6.877v-6.877c0-4.142-3.358-7.5-7.5-7.5z"/><path d="m372.313 144.519c4.143 0 7.5-3.357 7.5-7.5v-6.877h6.877c4.143 0 7.5-3.357 7.5-7.5s-3.357-7.5-7.5-7.5h-6.877v-6.877c0-4.143-3.357-7.5-7.5-7.5s-7.5 3.357-7.5 7.5v6.877h-6.877c-4.143 0-7.5 3.357-7.5 7.5s3.357 7.5 7.5 7.5h6.877v6.877c0 4.142 3.357 7.5 7.5 7.5z"/><path d="m386.689 347.768h-6.877v-6.877c0-4.143-3.357-7.5-7.5-7.5s-7.5 3.357-7.5 7.5v6.877h-6.877c-4.143 0-7.5 3.357-7.5 7.5s3.357 7.5 7.5 7.5h6.877v6.877c0 4.143 3.357 7.5 7.5 7.5s7.5-3.357 7.5-7.5v-6.877h6.877c4.143 0 7.5-3.357 7.5-7.5s-3.357-7.5-7.5-7.5z"/></g></svg>