<svg enable-background="new 0 0 24 24" height="512" viewBox="0 0 24 24" width="512" xmlns="http://www.w3.org/2000/svg"><path d="m20 5.946h-20l2.995-5.395c.183-.335.551-.551.94-.551h12.13c.389 0 .757.216.94.551z" fill="#ffa726"/><path d="m10.811 0 1.081 5.946h-3.784l1.081-5.946z" fill="#795548"/><path d="m15.763 19.004c-.482-.716-.763-1.578-.763-2.504 0-1.572.813-2.954 2.039-3.759.133-1.527 1.401-2.733 2.961-2.74v-4.055h-20v13.161c0 .493.4.893.893.893h14.286c.132-.37.327-.709.584-.996z" fill="#ffb74d"/><path d="m9.189 0h-5.254c-.389 0-.757.216-.94.551l-2.995 5.395h8.108z" fill="#de9121"/><path d="m10 0h-.811l-1.081 5.946h1.892z" fill="#694a3f"/><path d="m10 5.946h-1.892-8.108v13.161c0 .493.4.893.893.893h9.107z" fill="#de9f43"/><g fill="#4caf50"><path d="m20.5 22h-2.5c-.552 0-1-.448-1-1s.448-1 1-1h2.5c.276 0 .5-.224.5-.5s-.224-.5-.5-.5h-1c-1.378 0-2.5-1.122-2.5-2.5s1.122-2.5 2.5-2.5h2.5c.552 0 1 .448 1 1s-.448 1-1 1h-2.5c-.276 0-.5.224-.5.5s.224.5.5.5h1c1.378 0 2.5 1.122 2.5 2.5s-1.122 2.5-2.5 2.5z"/><path d="m20.012 24c-.552 0-1-.448-1-1v-1.793c0-.552.448-1 1-1s1 .448 1 1v1.793c0 .552-.448 1-1 1z"/><path d="m20.012 16c-.552 0-1-.448-1-1v-2c0-.552.448-1 1-1s1 .448 1 1v2c0 .552-.448 1-1 1z"/></g><g fill="#429846"><path d="m20 20h-2c-.552 0-1 .448-1 1s.448 1 1 1h1.012v-.793c0-.548.441-.993.988-1zm-.988-5.952c-1.146.227-2.012 1.24-2.012 2.452 0 1.378 1.122 2.5 2.5 2.5h.5v-2h-.5c-.276 0-.5-.224-.5-.5s.224-.5.5-.5h.5c-.547-.007-.988-.452-.988-1z"/><path d="m20 20.207c-.547.007-.988.452-.988 1v.793 1c0 .548.441.993.988 1z"/><path d="m20 12c-.547.007-.988.452-.988 1v1.048.952c0 .548.441.993.988 1z"/></g></svg>